<svg width="800" height="600" xmlns="http://www.w3.org/2000/svg">

 <g>
  <title>Layer 1</title>
  <g stroke="null">
   <g stroke="null">
    <title stroke="null">Layer 1</title>
    <g stroke="null">
     <title stroke="null">verified-symbol</title>
     <polygon stroke="null" class="cls-1" points="397.6701965332031,48.60307693481445 487.460693359375,8.564987182617188 536.6900024414062,95.0064468383789 632.1806640625,117.01766967773438 622.7587890625,216.77268981933594 687.4400024414062,292.4756774902344 622.9943237304688,367.49847412109375 632.1806640625,467.98236083984375 537.2553100585938,489.6048889160156 487.460693359375,576.4349975585938 398.3298645019531,536.3483276367188 308.5393371582031,576.4349975585938 259.30999755859375,489.99371337890625 163.81935119628906,467.98236083984375 173.24122619628906,368.1788330078125 108.55999755859375,292.4756774902344 173.0055694580078,217.452880859375 163.81935119628906,117.01766967773438 258.7447204589844,95.39509582519531 308.5393371582031,8.564987182617188 397.6701965332031,48.60307693481445 397.6701965332031,48.60307693481445 " fill="#0bd4cd" fill-rule="evenodd"/>
     <path stroke="null" class="cls-2" d="m287.19876,324.39925c-28.59539,-31.7292 15.31055,-79.00716 47.10937,-49.07579c11.21203,10.54401 27.51187,25.947 38.81812,36.39383l87.15234,-110.44482c30.33844,-32.36087 78.24867,15.16005 48.28711,47.71527l-109.48219,134.69117a33.58898,34.64459 0 0 1 -46.63828,2.13796c-18.56109,-18.22121 -45.79031,-44.41116 -65.24648,-61.41762z" fill="#000001"/>
    </g>
   </g>
  </g>
 </g>
</svg>